<?xml version="1.0" encoding="UTF-8"?>
<svg version="1.1" xmlns="http://www.w3.org/2000/svg" width="673" height="141">
<path d="M0 0 C222.09 0 444.18 0 673 0 C673 46.53 673 93.06 673 141 C450.91 141 228.82 141 0 141 C0 94.47 0 47.94 0 0 Z " fill="#FEFEFE" transform="translate(0,0)"/>
<path d="M0 0 C47.35693215 0 47.35693215 0 58 8 C63.19176564 13.45801003 63.46777665 18.61723659 63.4140625 25.94921875 C62.7581224 30.78213588 60.50525775 33.72459522 57 37 C54.125 39 54.125 39 52 40 C52.59167969 40.36351562 53.18335938 40.72703125 53.79296875 41.1015625 C59.94112286 45.01311242 65.26114113 48.98467729 68 56 C68.30078125 59.4609375 68.30078125 59.4609375 68.3125 63.375 C68.32925781 64.66148438 68.34601563 65.94796875 68.36328125 67.2734375 C67.67267114 74.35776055 64.38373198 78.09702448 59.109375 82.45703125 C43.88827526 93.59098384 13.36503512 88 0 88 C0 58.96 0 29.92 0 0 Z " fill="#6A54F0" transform="translate(306,29)"/>
<path d="M0 0 C6.27 0 12.54 0 19 0 C19 32.34 19 64.68 19 98 C12.73 98 6.46 98 0 98 C-0.495 94.04 -0.495 94.04 -1 90 C-1.4125 90.39832031 -1.825 90.79664062 -2.25 91.20703125 C-8.85877829 97.26999526 -15.07404907 99.77015995 -24.12890625 99.46875 C-31.46806875 98.27051939 -37.28654995 94.33175742 -42 88.6875 C-47.57751102 80.66230428 -49.09145104 72.69903085 -48 63 C-46.10650363 54.54689119 -42.2052212 47.81790212 -35.16796875 42.65625 C-28.57096381 38.63193326 -21.53384675 38.39382842 -14 39 C-9.28977935 40.19513061 -5.56990644 42.74508531 -2 46 C-1.67 46.66 -1.34 47.32 -1 48 C-0.67 32.16 -0.34 16.32 0 0 Z " fill="#7C37F6" transform="translate(626,19)"/>
<path d="M0 0 C4.69863589 3.6409343 7.24819839 8.36643521 9.8046875 13.6484375 C10.2996875 14.6384375 10.2996875 14.6384375 10.8046875 15.6484375 C11.61702007 27.16757968 10.99629581 35.55808647 3.6796875 44.8984375 C-1.78445513 50.81104108 -9.28987379 54.32717451 -17.296875 54.8515625 C-28.78595791 55.00441061 -38.34423063 53.46717521 -47.1953125 45.6484375 C-53.57681792 38.02342674 -55.6801892 30.7747124 -55.51171875 20.90234375 C-55.0535185 16.19023501 -53.60630218 12.67992844 -51.1953125 8.6484375 C-50.65197266 7.69324219 -50.65197266 7.69324219 -50.09765625 6.71875 C-45.66575242 -0.28215571 -38.81315099 -3.76066256 -30.953125 -5.83984375 C-19.69556771 -7.92871061 -9.77098427 -6.01558818 0 0 Z " fill="#7347F3" transform="translate(439.1953125,63.3515625)"/>
<path d="M0 0 C6.2681594 4.47091724 10.27141093 9.85268444 12.25 17.3125 C13.23663231 25.38754869 13.70090828 34.47746871 8.91796875 41.390625 C1.84944819 49.53514986 -5.26457912 54.5774756 -16.2109375 55.65234375 C-27.59722848 55.96108266 -36.92723351 53.73760051 -45.75 46.3125 C-51.43668714 40.39891262 -53.84514016 32.96610429 -54.1875 24.875 C-53.89781841 16.23283262 -50.64069087 9.32270767 -44.73828125 3.06640625 C-32.06864429 -8.10975681 -14.13846054 -8.66246247 0 0 Z " fill="#6362ED" transform="translate(168.75,62.6875)"/>
<path d="M0 0 C5.344979 5.67904019 5.41289594 11.17068258 5.29296875 18.5546875 C5.28872391 19.54501984 5.28447906 20.53535217 5.28010559 21.55569458 C5.26337622 24.70407845 5.22573419 27.85181113 5.1875 31 C5.17244576 33.14061572 5.15875865 35.28124153 5.14648438 37.421875 C5.11349142 42.6564991 5.06174836 47.89063932 5 53.125 C-1.27 53.125 -7.54 53.125 -14 53.125 C-14.495 50.155 -14.495 50.155 -15 47.125 C-15.680625 47.723125 -16.36125 48.32125 -17.0625 48.9375 C-24.10313616 54.18052693 -30.32024392 55.15225837 -39 54.125 C-44.95925812 52.39015018 -48.48676621 49.1286966 -52 44.125 C-54.0077921 38.10162369 -54.04953453 31.38553591 -51.375 25.625 C-47.66904065 21.72399016 -43.57483293 18.38811549 -38.02636719 17.97973633 C-35.60076995 17.95503412 -33.17573263 17.93934046 -30.75 17.9375 C-29.91597656 17.92525391 -29.08195312 17.91300781 -28.22265625 17.90039062 C-23.08492317 17.88829235 -18.8654718 18.46153464 -14 20.125 C-14.0825 18.866875 -14.165 17.60875 -14.25 16.3125 C-14.29640625 15.60480469 -14.3428125 14.89710937 -14.390625 14.16796875 C-15.24443393 11.30551958 -16.40813575 10.55317009 -19 9.125 C-27.52112666 7.70053455 -35.13683976 10.00204274 -43 13.125 C-44.03307771 11.36128182 -45.05112049 9.58874967 -46.0625 7.8125 C-46.63097656 6.82636719 -47.19945312 5.84023437 -47.78515625 4.82421875 C-49 2.125 -49 2.125 -48 -0.875 C-33.16022977 -8.46594875 -14.24529937 -8.90331211 0 0 Z " fill="#7840F4" transform="translate(511,63.875)"/>
<path d="M0 0 C4.30105301 3.87639208 6.71822042 8.37459745 7.17047119 14.19329834 C7.23093128 16.79542992 7.22484858 19.38952556 7.1953125 21.9921875 C7.1924826 22.93812775 7.18965271 23.88406799 7.18673706 24.8586731 C7.17558932 27.86424694 7.15049465 30.86951702 7.125 33.875 C7.11496321 35.91926651 7.10583859 37.96353772 7.09765625 40.0078125 C7.07737376 45.00541803 7.03821466 50.00237108 7 55 C0.4 55 -6.2 55 -13 55 C-13.06058594 52.15890625 -13.12117188 49.3178125 -13.18359375 46.390625 C-13.24541369 43.63701802 -13.30878874 40.88345091 -13.37231445 38.12988281 C-13.41560857 36.21715854 -13.45728756 34.304397 -13.49731445 32.39160156 C-13.5551508 29.64116182 -13.61880676 26.89090872 -13.68359375 24.140625 C-13.70030624 23.28631897 -13.71701874 22.43201294 -13.73423767 21.55181885 C-13.7641555 20.35102692 -13.7641555 20.35102692 -13.79467773 19.12597656 C-13.81799416 18.07340668 -13.81799416 18.07340668 -13.84178162 16.99957275 C-14.00726836 14.90814203 -14.43584497 13.01743692 -15 11 C-21.75957633 9.66347835 -21.75957633 9.66347835 -28.0625 11.75 C-31.64659882 15.91217927 -31.20934635 20.37998454 -31.31640625 25.60546875 C-31.33718735 26.44467361 -31.35796844 27.28387848 -31.37937927 28.14851379 C-31.44474018 30.82809294 -31.50369714 33.50776969 -31.5625 36.1875 C-31.60569802 38.00456737 -31.64931273 39.82162488 -31.69335938 41.63867188 C-31.80119168 46.09234934 -31.90036495 50.54610139 -32 55 C-38.27 55 -44.54 55 -51 55 C-51 35.86 -51 16.72 -51 -3 C-44.4 -3 -37.8 -3 -31 -3 C-30.67 -1.02 -30.34 0.96 -30 3 C-29.175 2.21625 -28.35 1.4325 -27.5 0.625 C-19.55021016 -5.96250191 -8.27987033 -5.74449248 0 0 Z " fill="#675CEF" transform="translate(244,62)"/>
<path d="M0 0 C7.26 0 14.52 0 22 0 C22 29.04 22 58.08 22 88 C14.74 88 7.48 88 0 88 C0 58.96 0 29.92 0 0 Z " fill="#5974EA" transform="translate(30,29)"/>
<path d="M0 0 C3.5 1.5 3.5 1.5 6 3 C5.44380331 7.6889493 4.11817327 11.19924267 1.9375 15.375 C1.38964844 16.43460938 0.84179688 17.49421875 0.27734375 18.5859375 C-0.14417969 19.38257812 -0.56570313 20.17921875 -1 21 C-1.58910156 20.67902344 -2.17820312 20.35804687 -2.78515625 20.02734375 C-6.06453042 18.5062231 -8.43017963 18.56160101 -12 19 C-15.64052508 21.74325229 -16.86791379 23.24274162 -17.65942383 27.78051758 C-17.70021025 29.23470349 -17.71476463 30.68979402 -17.70703125 32.14453125 C-17.72215256 32.91431808 -17.73727386 33.68410492 -17.75285339 34.47721863 C-17.79565263 36.92261218 -17.8045601 39.3667696 -17.8125 41.8125 C-17.83565061 43.47594414 -17.86101713 45.13935902 -17.88867188 46.80273438 C-17.95560055 50.86915838 -17.97663383 54.93216224 -18 59 C-24.27 59 -30.54 59 -37 59 C-37 39.86 -37 20.72 -37 1 C-30.73 1 -24.46 1 -18 1 C-17.67 2.98 -17.34 4.96 -17 7 C-16.51789062 6.57847656 -16.03578125 6.15695313 -15.5390625 5.72265625 C-14.90742187 5.17480469 -14.27578125 4.62695312 -13.625 4.0625 C-12.68527344 3.24458984 -12.68527344 3.24458984 -11.7265625 2.41015625 C-8.12302334 -0.53300583 -4.48469691 -0.49829966 0 0 Z " fill="#793CF5" transform="translate(567,58)"/>
<path d="M0 0 C3.5 1.5 3.5 1.5 6 3 C5.44380331 7.6889493 4.11817327 11.19924267 1.9375 15.375 C1.38964844 16.43460938 0.84179688 17.49421875 0.27734375 18.5859375 C-0.14417969 19.38257812 -0.56570312 20.17921875 -1 21 C-1.58910156 20.67902344 -2.17820313 20.35804687 -2.78515625 20.02734375 C-6.06453042 18.5062231 -8.43017963 18.56160101 -12 19 C-15.64052508 21.74325229 -16.86791379 23.24274162 -17.65942383 27.78051758 C-17.70021025 29.23470349 -17.71476463 30.68979402 -17.70703125 32.14453125 C-17.72215256 32.91431808 -17.73727386 33.68410492 -17.75285339 34.47721863 C-17.79565263 36.92261218 -17.8045601 39.3667696 -17.8125 41.8125 C-17.83565061 43.47594414 -17.86101713 45.13935902 -17.88867188 46.80273438 C-17.95560055 50.86915838 -17.97663383 54.93216224 -18 59 C-24.27 59 -30.54 59 -37 59 C-37 39.86 -37 20.72 -37 1 C-30.73 1 -24.46 1 -18 1 C-17.67 2.98 -17.34 4.96 -17 7 C-16.51789063 6.57847656 -16.03578125 6.15695313 -15.5390625 5.72265625 C-14.90742187 5.17480469 -14.27578125 4.62695312 -13.625 4.0625 C-12.68527344 3.24458984 -12.68527344 3.24458984 -11.7265625 2.41015625 C-8.12302334 -0.53300583 -4.48469691 -0.49829966 0 0 Z " fill="#5E6BEB" transform="translate(106,58)"/>
<path d="M0 0 C4.4919347 2.37309757 7.85615592 4.98441105 9.6875 9.8125 C10.59676152 16.17733061 10.07712756 20.01032446 6.40625 25.26171875 C4.37811807 27.76871516 3.09984767 28.96671744 0 30 C-5.18174013 30.26551065 -8.83539114 29.89771933 -13 26.6875 C-17.30369233 20.90441344 -17.83775516 16.13643288 -17 9 C-13.47699919 1.69303535 -8.13020206 -1.45068311 0 0 Z " fill="#FBF9FE" transform="translate(616,73)"/>
<path d="M0 0 C3.06166286 1.54701358 4.97457803 3.22456589 6.97265625 5.99609375 C8.77525302 11.61595426 9.12787706 16.80500821 6.41015625 22.18359375 C3.41980499 26.11826646 1.00250516 27.83381792 -3.91796875 28.62109375 C-9.03030403 28.93329743 -12.00562468 27.71536365 -15.96484375 24.30859375 C-19.56541649 20.34796374 -19.46815257 16.09363716 -19.31640625 10.96875 C-18.67267163 6.0978247 -16.38104312 3.48875989 -12.71484375 0.43359375 C-8.35908707 -1.34830671 -4.40597164 -1.55041149 0 0 Z " fill="#FBFBFE" transform="translate(153.96484375,73.69140625)"/>
<path d="M0 0 C3.9403376 2.08168779 6.69103599 4.19350791 9 8 C9.8691513 13.15426931 10.23295502 18.64652925 7.7578125 23.37109375 C5.30415853 26.30693345 3.67138553 27.77620482 0 29 C-5.30934666 29.34253849 -8.74909723 29.54241898 -13 26 C-16.41113589 22.31228553 -17.30691801 19.40028768 -17.5 14.5 C-17.30691801 9.59971232 -16.41113589 6.68771447 -13 3 C-9.05913462 -0.28405449 -4.98857772 -0.89011877 0 0 Z " fill="#FCFCFE" transform="translate(421,73)"/>
<path d="M0 0 C4.021875 -0.0928125 4.021875 -0.0928125 8.125 -0.1875 C8.95789551 -0.21481201 9.79079102 -0.24212402 10.64892578 -0.27026367 C15.50273718 -0.3241177 18.81697656 0.27277043 23 3 C25.66539031 6.99808546 25.84149704 10.29751653 25 15 C22.5625 18 22.5625 18 20 20 C19.67 20.33 19.34 20.66 19 21 C17.58429877 21.08651611 16.164405 21.10704904 14.74609375 21.09765625 C13.9770874 21.09515869 13.20808105 21.09266113 12.41577148 21.09008789 C11.43294189 21.08098389 10.4501123 21.07187988 9.4375 21.0625 C4.7659375 21.0315625 4.7659375 21.0315625 0 21 C0 14.07 0 7.14 0 0 Z " fill="#FDFDFE" transform="translate(327,79)"/>
<path d="M0 0 C3.5578125 -0.12375 3.5578125 -0.12375 7.1875 -0.25 C7.92508545 -0.28641602 8.6626709 -0.32283203 9.42260742 -0.36035156 C12.94899061 -0.41940241 14.91199332 -0.05280401 17.94921875 1.76953125 C20 4 20 4 20.625 7.9375 C20.41785102 11.40724536 19.95776889 12.05223321 17.625 14.9375 C12.11226405 19.26893539 6.8841636 18.0674918 0 18 C0 12.06 0 6.12 0 0 Z " fill="#FCFBFE" transform="translate(327,46)"/>
<path d="M0 0 C3.625 1 3.625 1 6 2 C5.68936785 5.41695365 5.38121598 7.50986517 3.25 10.25 C-0.50347086 13.16936622 -2.81907868 14.06108214 -7.625 13.8125 C-11 13 -11 13 -12.9375 11.875 C-14.66565297 8.82531829 -14.42685201 6.41481611 -14 3 C-9.86306333 -1.08065182 -5.46408773 -0.52407131 0 0 Z " fill="#FAF8FE" transform="translate(491,92)"/>
</svg>
